<?xml version="1.0" standalone="no"?>
<!DOCTYPE svg PUBLIC "-//W3C//DTD SVG 20010904//EN"
 "http://www.w3.org/TR/2001/REC-SVG-20010904/DTD/svg10.dtd">
<svg version="1.0" xmlns="http://www.w3.org/2000/svg"
 width="357.000000pt" height="103.000000pt" viewBox="0 0 357.000000 103.000000"
 preserveAspectRatio="xMidYMid meet">
<metadata>
Created by potrace 1.15, written by Peter Selinger 2001-2017
</metadata>
<g transform="translate(0.000000,103.000000) scale(0.100000,-0.100000)"
fill="#123456" stroke="none">
<path d="M172 857 l-172 -172 0 -343 0 -342 1785 0 1785 0 0 515 0 515 -1613
0 -1612 0 -173 -173z m853 -60 c164 -45 261 -140 273 -269 l5 -48 -168 2 -167
3 -14 40 c-24 72 -97 106 -184 85 -173 -42 -173 -318 0 -360 81 -19 160 13
186 76 l14 34 170 0 c94 0 170 -1 170 -3 0 -24 -39 -121 -61 -154 -79 -114
-258 -173 -484 -159 -269 16 -404 113 -436 315 -32 208 62 369 251 430 100 32
341 36 445 8z m1116 -7 c110 -21 162 -84 163 -196 0 -69 -33 -140 -78 -163
l-25 -14 25 -20 c35 -27 42 -51 53 -168 6 -60 16 -110 25 -124 9 -14 16 -29
16 -35 0 -14 -326 -14 -335 1 -4 6 -9 38 -12 72 -10 135 -12 137 -149 137
l-104 0 0 -110 0 -110 -150 0 -150 0 0 370 0 370 334 0 c184 0 357 -5 387 -10z
m574 -214 c39 -124 73 -222 76 -218 4 4 39 105 79 225 l72 217 164 0 c90 0
164 -3 164 -7 0 -5 -75 -171 -166 -370 l-167 -363 -152 0 -152 0 -156 354
c-86 194 -159 361 -163 370 -6 14 10 16 162 16 l169 0 70 -224z"/>
<path d="M1720 545 l0 -55 99 0 c117 0 148 9 157 46 6 21 2 31 -16 46 -18 15
-40 18 -131 18 l-109 0 0 -55z"/>
</g>
</svg>
